<svg width="22" height="19" viewBox="0 0 22 19" fill="none" xmlns="http://www.w3.org/2000/svg">
<path d="M9.11808 1.91183C7.1114 -0.0523493 3.88668 0.0453736 1.80225 2.1298C-0.133576 4.06563 0.138027 8.20535 2.30957 10.3769L2.69887 10.7613C3.79578 11.832 5.36242 13.2676 7.39322 15.0625L8.83445 16.3285L10.8482 18.0764L12.4734 16.7138L13.6405 15.7208C15.8845 13.7978 17.5864 12.2537 18.7348 11.1012L19.0815 10.7477L19.394 10.4176C21.4744 8.17412 21.784 3.96938 19.9645 2.14958L19.7986 1.98939C17.6839 0.0283875 14.6145 0.000554637 12.6887 1.92588L10.8111 3.89048L9.11808 1.91183Z" fill="#F3555A"/>
</svg>
