<svg width="24" height="24" viewBox="0 0 24 24" fill="none" xmlns="http://www.w3.org/2000/svg">
<path fill-rule="evenodd" clip-rule="evenodd" d="M12.5384 2.00003C12.6801 2.0016 12.8145 2.06326 12.9082 2.16969L14.7866 4.30429H19.4735C20.8542 4.30429 21.9735 5.42358 21.9735 6.8043V19.3952C21.9735 20.7759 20.8542 21.8952 19.4735 21.8952H5.5C4.11929 21.8952 3 20.7759 3 19.3952V6.8043C3 5.42358 4.11929 4.30429 5.5 4.30429H10.1935L12.1649 2.16147C12.2609 2.05714 12.3966 1.99846 12.5384 2.00003ZM12.5246 3.24747L10.7809 5.14282C10.6862 5.24573 10.5527 5.30429 10.4129 5.30429H5.5C4.67157 5.30429 4 5.97587 4 6.8043V19.3952C4 20.2236 4.67157 20.8952 5.5 20.8952H5.78935C6.04062 18.3085 8.22109 16.2866 10.8738 16.2866H13.6389C16.2916 16.2866 18.4721 18.3085 18.7234 20.8952H19.4735C20.3019 20.8952 20.9735 20.2236 20.9735 19.3952V6.8043C20.9735 5.97587 20.3019 5.30429 19.4735 5.30429H14.5606C14.4169 5.30429 14.2802 5.24248 14.1853 5.13461L12.5246 3.24747ZM17.7174 20.8952C17.4707 18.8619 15.7388 17.2866 13.6389 17.2866H10.8738C8.77392 17.2866 7.042 18.8619 6.79531 20.8952H17.7174ZM12.4405 13.9429C13.9244 13.9429 15.1274 12.7399 15.1274 11.256C15.1274 9.77211 13.9244 8.56916 12.4405 8.56916C10.9566 8.56916 9.75365 9.77211 9.75365 11.256C9.75365 12.7399 10.9566 13.9429 12.4405 13.9429ZM12.4405 14.9429C14.4767 14.9429 16.1274 13.2922 16.1274 11.256C16.1274 9.21982 14.4767 7.56916 12.4405 7.56916C10.4043 7.56916 8.75365 9.21982 8.75365 11.256C8.75365 13.2922 10.4043 14.9429 12.4405 14.9429Z" fill="black"/>
<path d="M12.9082 2.16969L13.0959 2.00453V2.00453L12.9082 2.16969ZM12.5384 2.00003L12.5411 1.75005L12.5384 2.00003ZM14.7866 4.30429L14.599 4.46945L14.6736 4.55429H14.7866V4.30429ZM10.1935 4.30429V4.55429H10.3032L10.3775 4.47356L10.1935 4.30429ZM12.1649 2.16147L12.3489 2.33074V2.33074L12.1649 2.16147ZM10.7809 5.14282L10.5969 4.97356L10.7809 5.14282ZM12.5246 3.24747L12.7123 3.08231L12.5287 2.87373L12.3406 3.0782L12.5246 3.24747ZM5.78935 20.8952V21.1452H6.01624L6.03818 20.9194L5.78935 20.8952ZM18.7234 20.8952L18.4745 20.9194L18.4965 21.1452H18.7234V20.8952ZM14.1853 5.13461L13.9976 5.29977V5.29977L14.1853 5.13461ZM17.7174 20.8952V21.1452H17.9996L17.9656 20.8651L17.7174 20.8952ZM6.79531 20.8952L6.54713 20.8651L6.51314 21.1452H6.79531V20.8952ZM13.0959 2.00453C12.9554 1.84489 12.7538 1.7524 12.5411 1.75005L12.5356 2.25002C12.6065 2.2508 12.6737 2.28163 12.7205 2.33484L13.0959 2.00453ZM14.9743 4.13914L13.0959 2.00453L12.7205 2.33484L14.599 4.46945L14.9743 4.13914ZM19.4735 4.05429H14.7866V4.55429H19.4735V4.05429ZM22.2235 6.8043C22.2235 5.28551 20.9923 4.05429 19.4735 4.05429V4.55429C20.7161 4.55429 21.7235 5.56165 21.7235 6.8043H22.2235ZM22.2235 19.3952V6.8043H21.7235V19.3952H22.2235ZM19.4735 22.1452C20.9923 22.1452 22.2235 20.914 22.2235 19.3952H21.7235C21.7235 20.6379 20.7161 21.6452 19.4735 21.6452V22.1452ZM5.5 22.1452H19.4735V21.6452H5.5V22.1452ZM2.75 19.3952C2.75 20.914 3.98122 22.1452 5.5 22.1452V21.6452C4.25736 21.6452 3.25 20.6379 3.25 19.3952H2.75ZM2.75 6.8043V19.3952H3.25V6.8043H2.75ZM5.5 4.05429C3.98122 4.05429 2.75 5.28551 2.75 6.8043H3.25C3.25 5.56165 4.25736 4.55429 5.5 4.55429V4.05429ZM10.1935 4.05429H5.5V4.55429H10.1935V4.05429ZM11.9809 1.99221L10.0095 4.13503L10.3775 4.47356L12.3489 2.33074L11.9809 1.99221ZM12.5411 1.75005C12.3285 1.7477 12.1249 1.83572 11.9809 1.99221L12.3489 2.33074C12.3968 2.27857 12.4647 2.24923 12.5356 2.25002L12.5411 1.75005ZM10.9648 5.31209L12.7086 3.41673L12.3406 3.0782L10.5969 4.97356L10.9648 5.31209ZM10.4129 5.55429C10.6226 5.55429 10.8228 5.46645 10.9648 5.31209L10.5969 4.97356C10.5495 5.02501 10.4828 5.05429 10.4129 5.05429V5.55429ZM5.5 5.55429H10.4129V5.05429H5.5V5.55429ZM4.25 6.8043C4.25 6.11394 4.80964 5.55429 5.5 5.55429V5.05429C4.5335 5.05429 3.75 5.8378 3.75 6.8043H4.25ZM4.25 19.3952V6.8043H3.75V19.3952H4.25ZM5.5 20.6452C4.80964 20.6452 4.25 20.0856 4.25 19.3952H3.75C3.75 20.3617 4.5335 21.1452 5.5 21.1452V20.6452ZM5.78935 20.6452H5.5V21.1452H5.78935V20.6452ZM6.03818 20.9194C6.27713 18.4595 8.35105 16.5366 10.8738 16.5366V16.0366C8.09113 16.0366 5.80412 18.1575 5.54052 20.871L6.03818 20.9194ZM10.8738 16.5366H13.6389V16.0366H10.8738V16.5366ZM13.6389 16.5366C16.1617 16.5366 18.2356 18.4595 18.4745 20.9194L18.9722 20.871C18.7086 18.1575 16.4216 16.0366 13.6389 16.0366V16.5366ZM19.4735 20.6452H18.7234V21.1452H19.4735V20.6452ZM20.7235 19.3952C20.7235 20.0856 20.1639 20.6452 19.4735 20.6452V21.1452C20.44 21.1452 21.2235 20.3617 21.2235 19.3952H20.7235ZM20.7235 6.8043V19.3952H21.2235V6.8043H20.7235ZM19.4735 5.55429C20.1639 5.55429 20.7235 6.11394 20.7235 6.8043H21.2235C21.2235 5.8378 20.44 5.05429 19.4735 5.05429V5.55429ZM14.5606 5.55429H19.4735V5.05429H14.5606V5.55429ZM13.9976 5.29977C14.14 5.46157 14.3451 5.55429 14.5606 5.55429V5.05429C14.4888 5.05429 14.4204 5.02339 14.3729 4.96945L13.9976 5.29977ZM12.3369 3.41263L13.9976 5.29977L14.3729 4.96945L12.7123 3.08231L12.3369 3.41263ZM17.9656 20.8651C17.7039 18.7078 15.8667 17.0366 13.6389 17.0366V17.5366C15.6108 17.5366 17.2376 19.016 17.4692 20.9253L17.9656 20.8651ZM13.6389 17.0366H10.8738V17.5366H13.6389V17.0366ZM10.8738 17.0366C8.64597 17.0366 6.80886 18.7078 6.54713 20.8651L7.04349 20.9253C7.27513 19.016 8.90188 17.5366 10.8738 17.5366V17.0366ZM17.7174 20.6452H6.79531V21.1452H17.7174V20.6452ZM14.8774 11.256C14.8774 12.6019 13.7864 13.6929 12.4405 13.6929V14.1929C14.0625 14.1929 15.3774 12.878 15.3774 11.256H14.8774ZM12.4405 8.81916C13.7864 8.81916 14.8774 9.91018 14.8774 11.256H15.3774C15.3774 9.63404 14.0625 8.31916 12.4405 8.31916V8.81916ZM10.0036 11.256C10.0036 9.91018 11.0947 8.81916 12.4405 8.81916V8.31916C10.8185 8.31916 9.50365 9.63404 9.50365 11.256H10.0036ZM12.4405 13.6929C11.0947 13.6929 10.0036 12.6019 10.0036 11.256H9.50365C9.50365 12.878 10.8185 14.1929 12.4405 14.1929V13.6929ZM15.8774 11.256C15.8774 13.1542 14.3386 14.6929 12.4405 14.6929V15.1929C14.6148 15.1929 16.3774 13.4303 16.3774 11.256H15.8774ZM12.4405 7.81916C14.3386 7.81916 15.8774 9.3579 15.8774 11.256H16.3774C16.3774 9.08175 14.6148 7.31916 12.4405 7.31916V7.81916ZM9.00365 11.256C9.00365 9.3579 10.5424 7.81916 12.4405 7.81916V7.31916C10.2662 7.31916 8.50365 9.08175 8.50365 11.256H9.00365ZM12.4405 14.6929C10.5424 14.6929 9.00365 13.1542 9.00365 11.256H8.50365C8.50365 13.4303 10.2662 15.1929 12.4405 15.1929V14.6929Z" fill="black"/>
</svg>
