<svg width="24" height="24" viewBox="0 0 24 24" fill="none" xmlns="http://www.w3.org/2000/svg">
<path d="M7 3.05H18C19.6292 3.05 20.95 4.37076 20.95 6V17C20.95 18.6292 19.6292 19.95 18 19.95H7C5.37076 19.95 4.05 18.6292 4.05 17V6C4.05 4.37076 5.37076 3.05 7 3.05ZM7 0.75C4.10051 0.75 1.75 3.1005 1.75 6V17C1.75 19.8995 4.1005 22.25 7 22.25H18C20.8995 22.25 23.25 19.8995 23.25 17V6C23.25 3.10051 20.8995 0.75 18 0.75H7Z" fill="black" stroke="black" stroke-width="0.5"/>
<path d="M21.5 6.69995V7.49995H3.5V6.69995H21.5Z" fill="black" stroke="black"/>
<path d="M10.8241 5.97812L10.1247 6.36663L6.74943 2.1475L7.44876 1.75899L10.8241 5.97812Z" fill="black" stroke="black"/>
<path d="M17.3241 5.97812L16.6247 6.36663L13.2494 2.1475L13.9488 1.75899L17.3241 5.97812Z" fill="black" stroke="black"/>
<path d="M15.75 13.0671C16.0833 13.2595 16.0833 13.7407 15.75 13.9331L10.5 16.9642C10.1667 17.1566 9.75 16.9161 9.75 16.5312L9.75 10.469C9.75 10.0841 10.1667 9.84354 10.5 10.036L15.75 13.0671Z" fill="black"/>
</svg>
