<svg width="345" height="15" viewBox="0 0 345 15" fill="none" xmlns="http://www.w3.org/2000/svg">
<path d="M168.422 2.83398C165.967 2.83398 164.42 4.53906 164.42 7.26953C164.42 9.99414 165.943 11.7109 168.422 11.7109C170.889 11.7109 172.418 9.99414 172.418 7.26953C172.418 4.53906 170.883 2.83398 168.422 2.83398ZM168.422 4.14062C169.922 4.14062 170.877 5.35352 170.877 7.26953C170.877 9.17383 169.928 10.4043 168.422 10.4043C166.898 10.4043 165.967 9.17383 165.967 7.26953C165.967 5.35352 166.922 4.14062 168.422 4.14062ZM175.664 8.31836H177.34L178.998 11.5H180.727L178.881 8.08984C179.889 7.72656 180.475 6.79492 180.475 5.67578C180.475 4.05859 179.361 3.04492 177.586 3.04492H174.152V11.5H175.664V8.31836ZM175.664 4.26953H177.375C178.336 4.26953 178.922 4.81445 178.922 5.70508C178.922 6.61328 178.371 7.13477 177.41 7.13477H175.664V4.26953Z" fill="black" fill-opacity="0.4"/>
<path d="M1 7H133" stroke="black" stroke-opacity="0.2" stroke-width="0.33" stroke-linecap="square"/>
<path d="M212 7H344" stroke="black" stroke-opacity="0.2" stroke-width="0.33" stroke-linecap="square"/>
</svg>
