<svg width="24" height="24" viewBox="0 0 24 24" fill="none" xmlns="http://www.w3.org/2000/svg">
<path d="M6.47927 8.09185H17.6007C18.1551 8.09185 18.614 8.52296 18.6486 9.07635L19.1218 16.6473C19.2675 18.9789 17.4158 20.95 15.0797 20.95H9.00024C6.66411 20.95 4.8124 18.9789 4.95813 16.6473L5.43131 9.07635C5.4659 8.52296 5.9248 8.09185 6.47927 8.09185ZM6.47927 5.99185C4.81587 5.99185 3.43916 7.28519 3.3354 8.94535L2.86222 16.5163C2.64093 20.0569 5.45279 23.0499 9.00024 23.0499H15.0797C18.6271 23.0499 21.439 20.0569 21.2177 16.5163L20.7445 8.94535C20.6408 7.28519 19.2641 5.99185 17.6007 5.99185H6.47927Z" fill="black" stroke="black" stroke-width="0.3"/>
<path fill-rule="evenodd" clip-rule="evenodd" d="M12.2761 2.8C11.0812 2.8 10.1125 3.76867 10.1125 4.96359V6.1419H8.3125V4.96359C8.3125 2.77456 10.0871 1 12.2761 1C14.4651 1 16.2397 2.77456 16.2397 4.96359V6.1419H14.4397V4.96359C14.4397 3.76867 13.471 2.8 12.2761 2.8Z" fill="black" stroke="black" stroke-width="0.5"/>
<path fill-rule="evenodd" clip-rule="evenodd" d="M12.2757 12.3118C13.4706 12.3118 14.4393 11.3431 14.4393 10.1482L14.4393 9.91256C14.4393 9.41551 14.8422 9.01256 15.3393 9.01256C15.8363 9.01256 16.2393 9.41551 16.2393 9.91256L16.2393 10.1482C16.2393 12.3373 14.4647 14.1118 12.2757 14.1118C10.0866 14.1118 8.31208 12.3373 8.31208 10.1482L8.31208 9.91257C8.31208 9.41551 8.71502 9.01257 9.21208 9.01257C9.70913 9.01257 10.1121 9.41551 10.1121 9.91257L10.1121 10.1482C10.1121 11.3431 11.0807 12.3118 12.2757 12.3118Z" fill="black" stroke="black" stroke-width="0.5" stroke-linecap="round"/>
</svg>
